<svg id="Layer_1" data-name="Layer 1" xmlns="http://www.w3.org/2000/svg" viewBox="0 0 400 300" width="406" height="306" class="illustration styles_illustrationTablet__1DWOa"><title>_</title><path d="M289.9,63.66c32.67,10.56,58,40.26,64.59,77.39,5.54,31.29-3.66,69.77-57.34,87.63-54.79,18.24-208,27-236.49-23.71S38.17,89.11,96.59,66C137.54,49.85,226.09,43,289.9,63.66Z" fill="#e6e6e6" opacity="0.3"></path><path d="M331.85,195.83s-10.4-48.92-36.56-48.92-40.08,76.9,23.56,85.27Z" fill="#f4a28c"></path><path d="M331.85,195.83s-10.4-48.92-36.56-48.92-40.08,76.9,23.56,85.27Z" opacity="0.1"></path><path d="M68.15,195.83s10.4-48.92,36.56-48.92,40.08,76.9-23.56,85.27Z" fill="#f4a28c"></path><path d="M68.15,195.83s10.4-48.92,36.56-48.92,40.08,76.9-23.56,85.27Z" opacity="0.1"></path><rect x="91.04" y="66.67" width="224.69" height="144.37" fill="#c3ee81"></rect><rect x="91.04" y="66.67" width="224.69" height="144.36" fill="#fff" opacity="0.46"></rect><rect x="109.31" y="79.55" width="188.16" height="116.28" fill="#fff"></rect><rect x="246.25" y="92.84" width="42.2" height="27" fill="#c9c9c9"></rect><rect x="246.25" y="124.29" width="42.2" height="27" fill="#c9c9c9"></rect><rect x="246.25" y="155.74" width="42.2" height="27" fill="#c9c9c9"></rect><rect x="117.62" y="92.23" width="117.62" height="90.05" fill="#ffd200"></rect><path d="M128.16,178.4c-4.29,9.91-17.31,15.95-17.5,29,0,1.21,0,2.44,0,3.67H91v-5.52l30.25-43.73S132.44,168.48,128.16,178.4Z" opacity="0.1"></path><path d="M88.65,177.67s20.19-20.66,28.91-18.82c7.19,1.51,7.2,15.83-8.48,27.76a27.8,27.8,0,0,0-11,20.29c-.45,6.67-2.65,14.59-9.41,20.59-14.23,12.59-24.79,1.62-23.41-15.38S67.53,190.06,88.65,177.67Z" fill="#f4a28c"></path><polygon points="100.6 249.17 101.92 230.88 63.37 219.19 54.42 249.17 100.6 249.17" fill="#c3ee81"></polygon><polygon points="100.6 249.17 101.92 230.88 83.52 225.3 80.48 249.17 100.6 249.17" opacity="0.1"></polygon><path d="M311.35,177.67S291.16,157,282.44,158.85c-7.19,1.51-7.2,15.83,8.48,27.76a27.8,27.8,0,0,1,11,20.29c.45,6.67,2.65,14.59,9.41,20.59,14.23,12.59,24.79,1.62,23.41-15.38S332.47,190.06,311.35,177.67Z" fill="#f4a28c"></path><polygon points="345.58 249.17 336.63 219.19 298.08 230.88 299.4 249.17 345.58 249.17" fill="#c3ee81"></polygon><polygon points="319.52 249.17 316.48 225.3 298.08 230.88 299.4 249.17 319.52 249.17" opacity="0.1"></polygon><circle cx="99.67" cy="157.95" r="3.05" opacity="0.1"></circle><rect x="83.88" y="131.44" width="32.23" height="2.77" rx="1.04" transform="translate(-32.83 232.82) rotate(-90)" opacity="0.1"></rect><circle cx="307.65" cy="138.85" r="4.51" fill="#24285b"></circle><path d="M185.62,110.8s13.5,5.89,23.84,21.17,37.3,10.2,42.24-13.26c0,0,2-11,5.62-10.56s0,8.31,0,8.31,4.94.23,4.5,4.05-6.52,7.41-6.52,7.41-10.56,46.74-62,18.43Z" fill="#f4a28c"></path><path d="M178.42,92.9s7.52,12.56-1.1,15.78-8.24-19.43-8.24-19.43Z" fill="#24285b"></path><path d="M159.62,105.51s-24.37,11.08-24.07,28.59,18.72,48.18,18.72,48.18h39.21V162a43,43,0,0,1,4-18.11c4-8.56,6.15-24.4-20.61-38.36Z" fill="#c3ee81"></path><path d="M164.26,108.5s9.76,6.79,12.66-3h-9Z" fill="#fff"></path><path d="M176.13,83.76a30.94,30.94,0,0,1,2.48,7.88,2.5,2.5,0,0,1-2.23,2.75,5.54,5.54,0,0,1-5.49-2.4L168,88.43a4.47,4.47,0,0,1,.19-5.16C170.11,80.41,175,81,176.13,83.76Z" fill="#f4a28c"></path><polygon points="169.08 89.25 167.91 105.51 176.92 105.51 174.22 93.97 169.08 89.25" fill="#f4a28c"></polygon><path d="M177.32,86.66l2,1.32a.8.8,0,0,1,0,1.35l-1.66,1Z" fill="#f4a28c"></path><path d="M174.3,94.3a6.08,6.08,0,0,1-2.94-1.4s-.58,3.52,3.71,4.71Z" fill="#ce8172" opacity="0.31"></path><path d="M172.83,86.17l-2.1.72s2.29,9-.74,16.77a8.09,8.09,0,0,1-12.36,3.41l-1.84-1.36a3.77,3.77,0,0,1,.35-6.28c3.41-2,7-5.62,6.31-11.74-.77-7.21,5.76-11.56,10.47-10.39A4.57,4.57,0,0,1,172.83,86.17Z" fill="#24285b"></path><path d="M172,89.05s-.7-1.79-2-1.15-.3,3.22,1.62,2.78Z" fill="#f4a28c"></path><rect x="178.57" y="144.63" width="10.44" height="15.43" fill="#ffd200"></rect><path d="M157.87,119s12.7,10.7,5.18,23.17-5.22,25.41,9,22.48l14.18-2.93h0s6.76,11.55-6,13.61l1.83,6.93H154.27L151.15,175l-5.4-9.08-12.64-10.41Z" opacity="0.08"></path><path d="M158.7,122.36a9.68,9.68,0,0,0-15.91-6.74c-5.16,4.35-10.56,10.8-12.65,19.72-4.5,19.1-6.26,35.73,5.41,39.77S178.63,167,178.63,167s9.71,0,10.38-7-9.1-4.34-11.69,2c0,0-38,11.23-33-7C148.12,141,159.62,135.61,158.7,122.36Z" fill="#f4a28c"></path><rect x="248.11" y="124.55" width="10.11" height="4.04" transform="translate(63.19 -83.24) rotate(21.28)" fill="#c3ee81"></rect><path d="M170.73,86.89l9.55-2.23s-3-10.11-11.2-7.21Z" fill="#24285b"></path><rect x="117.62" y="172.95" width="117.62" height="9.33" fill="#24285b"></rect><rect x="123.64" y="177" width="105.58" height="1.24" fill="#fff" opacity="0.46"></rect><circle cx="147.99" cy="177.62" r="3.58" fill="#ffd200"></circle></svg>